<svg width="116" height="57" viewBox="0 0 116 57" fill="none" xmlns="http://www.w3.org/2000/svg">
<path d="M13.56 43.48C11.24 43.48 9.17333 42.9067 7.36 41.76C5.54667 40.6133 4.12 38.96 3.08 36.8C2.06667 34.6133 1.56 32.0133 1.56 29C1.56 25.9867 2.06667 23.4 3.08 21.24C4.12 19.0533 5.54667 17.3867 7.36 16.24C9.17333 15.0933 11.24 14.52 13.56 14.52C15.88 14.52 17.9467 15.0933 19.76 16.24C21.5733 17.3867 22.9867 19.0533 24 21.24C25.04 23.4 25.56 25.9867 25.56 29C25.56 32.0133 25.04 34.6133 24 36.8C22.9867 38.96 21.5733 40.6133 19.76 41.76C17.9467 42.9067 15.88 43.48 13.56 43.48ZM13.56 38C15.2667 38 16.6 37.2667 17.56 35.8C18.5467 34.3333 19.04 32.0667 19.04 29C19.04 25.9333 18.5467 23.6667 17.56 22.2C16.6 20.7333 15.2667 20 13.56 20C11.88 20 10.5467 20.7333 9.56 22.2C8.6 23.6667 8.12 25.9333 8.12 29C8.12 32.0667 8.6 34.3333 9.56 35.8C10.5467 37.2667 11.88 38 13.56 38Z" fill="#23A6F0"/>
<path d="M42.32 23.604V22.436C40.9653 22.2227 39.7173 21.6093 38.576 20.596L40.064 18.788C40.896 19.5133 41.648 19.9773 42.32 20.18V17.796C41.2 17.508 40.3787 17.124 39.856 16.644C39.3333 16.1533 39.072 15.4547 39.072 14.548C39.072 13.6307 39.3707 12.8787 39.968 12.292C40.5653 11.6947 41.3493 11.3373 42.32 11.22V10.436H44.016V11.252C45.0827 11.4013 46.144 11.844 47.2 12.58L45.888 14.468C45.216 13.988 44.592 13.668 44.016 13.508V15.812C45.168 16.1107 46.016 16.5107 46.56 17.012C47.1147 17.5133 47.392 18.2227 47.392 19.14C47.392 20.0573 47.0827 20.8147 46.464 21.412C45.856 22.0093 45.04 22.3667 44.016 22.484V23.604H42.32ZM44.832 19.268C44.832 19.044 44.7733 18.8573 44.656 18.708C44.5387 18.5587 44.3253 18.42 44.016 18.292V20.26C44.56 20.0893 44.832 19.7587 44.832 19.268ZM42.32 13.444C41.8613 13.604 41.632 13.8973 41.632 14.324C41.632 14.7507 41.8613 15.076 42.32 15.3V13.444Z" fill="#23A6F0"/>
<path d="M43.348 35.7H39.316V45.5H41.136V42.672H43.348C45.924 42.672 47.52 41.342 47.52 39.186C47.52 37.016 45.924 35.7 43.348 35.7ZM43.264 41.132H41.136V37.24H43.264C44.86 37.24 45.686 37.954 45.686 39.186C45.686 40.418 44.86 41.132 43.264 41.132ZM56.3701 41.804C56.3701 39.466 54.7741 37.94 52.5901 37.94C50.3641 37.94 48.7261 39.536 48.7261 41.762C48.7261 43.988 50.3501 45.598 52.8561 45.598C54.1441 45.598 55.1941 45.178 55.8661 44.38L54.9281 43.302C54.3961 43.848 53.7381 44.114 52.8981 44.114C51.5961 44.114 50.6861 43.414 50.4761 42.322H56.3421C56.3561 42.154 56.3701 41.944 56.3701 41.804ZM52.5901 39.34C53.7381 39.34 54.5641 40.082 54.7041 41.16H50.4621C50.6301 40.068 51.4561 39.34 52.5901 39.34ZM59.9171 39.116V38.024H58.2511V45.5H60.0011V41.874C60.0011 40.348 60.8411 39.564 62.1711 39.564C62.2971 39.564 62.4231 39.578 62.5771 39.606V37.94C61.3311 37.94 60.4211 38.332 59.9171 39.116ZM79.2912 45.5L79.2772 35.7H77.7792L73.9572 42.196L70.0652 35.7H68.5672V45.5H70.3032V39.088L73.5232 44.38H74.3352L77.5552 39.004L77.5692 45.5H79.2912ZM85.3303 45.598C87.6543 45.598 89.3203 44.002 89.3203 41.762C89.3203 39.522 87.6543 37.94 85.3303 37.94C83.0343 37.94 81.3543 39.522 81.3543 41.762C81.3543 44.002 83.0343 45.598 85.3303 45.598ZM85.3303 44.1C84.0703 44.1 83.1183 43.19 83.1183 41.762C83.1183 40.334 84.0703 39.424 85.3303 39.424C86.6043 39.424 87.5563 40.334 87.5563 41.762C87.5563 43.19 86.6043 44.1 85.3303 44.1ZM95.4357 37.94C94.3437 37.94 93.4337 38.304 92.8597 38.99V38.024H91.1937V45.5H92.9437V41.72C92.9437 40.222 93.7837 39.466 95.0297 39.466C96.1497 39.466 96.8077 40.11 96.8077 41.44V45.5H98.5577V41.216C98.5577 38.962 97.2277 37.94 95.4357 37.94ZM104.982 43.848C104.716 44.058 104.366 44.156 104.002 44.156C103.33 44.156 102.966 43.764 102.966 43.036V39.48H104.968V38.08H102.966V36.372H101.216V38.08H99.9837V39.48H101.216V43.078C101.216 44.73 102.154 45.598 103.792 45.598C104.422 45.598 105.052 45.43 105.472 45.094L104.982 43.848ZM111.353 37.94C110.317 37.94 109.435 38.276 108.861 38.892V35.112H107.111V45.5H108.861V41.72C108.861 40.222 109.701 39.466 110.947 39.466C112.067 39.466 112.725 40.11 112.725 41.44V45.5H114.475V41.216C114.475 38.962 113.145 37.94 111.353 37.94Z" fill="#8EC2F2"/>
</svg>
