<svg width="131" height="23" viewBox="0 0 131 23" fill="none" xmlns="http://www.w3.org/2000/svg">
<g clip-path="url(#clip0_1579_102)">
<path d="M20.6308 8.41939C20.5731 8.24958 20.467 8.10037 20.3255 7.99018C20.184 7.87999 20.0134 7.81365 19.8346 7.79934L14.6054 7.38383L12.3426 2.37482C12.2706 2.21349 12.1533 2.07646 12.0051 1.98028C11.8569 1.88409 11.684 1.83286 11.5073 1.83276C11.3306 1.83267 11.1577 1.88371 11.0094 1.97973C10.861 2.07575 10.7437 2.21265 10.6714 2.3739L8.40861 7.38383L3.17946 7.79934C3.00377 7.81326 2.83581 7.8775 2.69567 7.98438C2.55553 8.09125 2.44915 8.23624 2.38926 8.40199C2.32936 8.56774 2.31849 8.74724 2.35793 8.91901C2.39738 9.09078 2.48548 9.24755 2.61169 9.37056L6.476 13.1376L5.10932 19.0556C5.06782 19.2348 5.08112 19.4222 5.1475 19.5937C5.21387 19.7652 5.33025 19.9128 5.48154 20.0173C5.63282 20.1218 5.81203 20.1785 5.9959 20.1799C6.17978 20.1813 6.35983 20.1274 6.51269 20.0252L11.507 16.6956L16.5014 20.0252C16.6576 20.1289 16.8419 20.1823 17.0294 20.1782C17.2169 20.1741 17.3986 20.1126 17.5501 20.0022C17.7017 19.8917 17.8157 19.7374 17.877 19.5602C17.9383 19.3829 17.9438 19.1912 17.8928 19.0107L16.2152 13.1404L20.3758 9.39625C20.6482 9.15043 20.7482 8.76702 20.6308 8.41939Z" fill="#F3CD03"/>
<path d="M47.6457 8.41939C47.588 8.24958 47.4819 8.10037 47.3404 7.99018C47.1989 7.87999 47.0283 7.81365 46.8495 7.79934L41.6204 7.38383L39.3576 2.37482C39.2855 2.21349 39.1683 2.07646 39.0201 1.98028C38.8718 1.88409 38.699 1.83286 38.5223 1.83276C38.3456 1.83267 38.1726 1.88371 38.0243 1.97973C37.876 2.07575 37.7586 2.21265 37.6864 2.3739L35.4235 7.38383L30.1944 7.79934C30.0187 7.81326 29.8507 7.8775 29.7106 7.98438C29.5705 8.09125 29.4641 8.23624 29.4042 8.40199C29.3443 8.56774 29.3334 8.74724 29.3729 8.91901C29.4123 9.09078 29.5004 9.24755 29.6266 9.37056L33.4909 13.1376L32.1243 19.0556C32.0828 19.2348 32.0961 19.4222 32.1624 19.5937C32.2288 19.7652 32.3452 19.9128 32.4965 20.0173C32.6478 20.1218 32.827 20.1785 33.0108 20.1799C33.1947 20.1813 33.3748 20.1274 33.5276 20.0252L38.522 16.6956L43.5163 20.0252C43.6725 20.1289 43.8568 20.1823 44.0443 20.1782C44.2318 20.1741 44.4135 20.1126 44.5651 20.0022C44.7166 19.8917 44.8307 19.7374 44.8919 19.5602C44.9532 19.3829 44.9587 19.1912 44.9077 19.0107L43.2301 13.1404L47.3907 9.39625C47.6631 9.15043 47.7631 8.76702 47.6457 8.41939Z" fill="#F3CD03"/>
<path d="M74.6567 8.41939C74.5991 8.24958 74.4929 8.10037 74.3515 7.99018C74.21 7.87999 74.0393 7.81365 73.8606 7.79934L68.6314 7.38383L66.3686 2.37482C66.2965 2.21349 66.1793 2.07646 66.0311 1.98028C65.8829 1.88409 65.71 1.83286 65.5333 1.83276C65.3566 1.83267 65.1836 1.88371 65.0353 1.97973C64.887 2.07575 64.7696 2.21265 64.6974 2.3739L62.4346 7.38383L57.2054 7.79934C57.0297 7.81326 56.8618 7.8775 56.7216 7.98438C56.5815 8.09125 56.4751 8.23624 56.4152 8.40199C56.3553 8.56774 56.3444 8.74724 56.3839 8.91901C56.4233 9.09078 56.5114 9.24755 56.6377 9.37056L60.502 13.1376L59.1353 19.0556C59.0938 19.2348 59.1071 19.4222 59.1735 19.5937C59.2398 19.7652 59.3562 19.9128 59.5075 20.0173C59.6588 20.1218 59.838 20.1785 60.0219 20.1799C60.2057 20.1813 60.3858 20.1274 60.5387 20.0252L65.533 16.6956L70.5273 20.0252C70.6836 20.1289 70.8678 20.1823 71.0553 20.1782C71.2428 20.1741 71.4246 20.1126 71.5761 20.0022C71.7276 19.8917 71.8417 19.7374 71.903 19.5602C71.9642 19.3829 71.9697 19.1912 71.9188 19.0107L70.2412 13.1404L74.4017 9.39625C74.6741 9.15043 74.7741 8.76702 74.6567 8.41939Z" fill="#F3CD03"/>
<path d="M101.671 8.41939C101.613 8.24958 101.507 8.10037 101.365 7.99018C101.224 7.87999 101.053 7.81365 100.875 7.79934L95.6454 7.38383L93.3826 2.37482C93.3105 2.21349 93.1933 2.07646 93.0451 1.98028C92.8968 1.88409 92.7239 1.83286 92.5473 1.83276C92.3706 1.83267 92.1976 1.88371 92.0493 1.97973C91.901 2.07575 91.7836 2.21265 91.7114 2.3739L89.4485 7.38383L84.2194 7.79934C84.0437 7.81326 83.8757 7.8775 83.7356 7.98438C83.5955 8.09125 83.4891 8.23624 83.4292 8.40199C83.3693 8.56774 83.3584 8.74724 83.3979 8.91901C83.4373 9.09078 83.5254 9.24755 83.6516 9.37056L87.5159 13.1376L86.1492 19.0556C86.1077 19.2348 86.121 19.4222 86.1874 19.5937C86.2538 19.7652 86.3702 19.9128 86.5215 20.0173C86.6727 20.1218 86.852 20.1785 87.0358 20.1799C87.2197 20.1813 87.3998 20.1274 87.5526 20.0252L92.547 16.6956L97.5413 20.0252C97.6975 20.1289 97.8818 20.1823 98.0693 20.1782C98.2568 20.1741 98.4385 20.1126 98.5901 20.0022C98.7416 19.8917 98.8557 19.7374 98.9169 19.5602C98.9782 19.3829 98.9837 19.1912 98.9327 19.0107L97.2551 13.1404L101.416 9.39625C101.688 9.15043 101.788 8.76702 101.671 8.41939Z" fill="#F3CD03"/>
<path d="M114.532 13.1377L113.165 19.0557C113.123 19.2349 113.135 19.4227 113.202 19.5945C113.268 19.7664 113.384 19.9143 113.535 20.0191C113.687 20.1238 113.866 20.1804 114.051 20.1814C114.235 20.1825 114.415 20.1281 114.568 20.0252L119.562 16.6956L124.556 20.0252C124.712 20.1289 124.897 20.1823 125.084 20.1782C125.272 20.1741 125.453 20.1127 125.605 20.0022C125.757 19.8917 125.871 19.7375 125.932 19.5602C125.993 19.383 125.999 19.1912 125.948 19.0107L124.27 13.1404L128.431 9.39628C128.564 9.27629 128.659 9.11988 128.704 8.94638C128.75 8.77289 128.743 8.58992 128.686 8.4201C128.628 8.25029 128.522 8.10107 128.38 7.99091C128.239 7.88075 128.068 7.81448 127.889 7.80029L122.66 7.38386L120.397 2.37485C120.325 2.21356 120.208 2.0766 120.06 1.98049C119.911 1.88439 119.739 1.83325 119.562 1.83325C119.385 1.83325 119.212 1.88439 119.064 1.98049C118.916 2.0766 118.798 2.21356 118.726 2.37485L116.463 7.38386L111.234 7.79937C111.059 7.81329 110.891 7.87753 110.751 7.98441C110.61 8.09128 110.504 8.23627 110.444 8.40202C110.384 8.56777 110.373 8.74727 110.413 8.91904C110.452 9.09081 110.54 9.24758 110.667 9.37059L114.532 13.1377ZM117.149 9.16972C117.312 9.15682 117.47 9.10012 117.604 9.00555C117.738 8.91098 117.844 8.78203 117.912 8.63222L119.562 4.98071L121.212 8.63222C121.279 8.78203 121.386 8.91098 121.52 9.00555C121.654 9.10012 121.811 9.15682 121.975 9.16972L125.618 9.45865L122.618 12.159C122.358 12.3938 122.254 12.7552 122.349 13.0927L123.499 17.1148L120.072 14.83C119.921 14.729 119.744 14.6751 119.563 14.6751C119.382 14.6751 119.205 14.729 119.055 14.83L115.474 17.2175L116.437 13.0478C116.472 12.8944 116.467 12.7346 116.423 12.5836C116.379 12.4326 116.296 12.2955 116.184 12.1856L113.397 9.46874L117.149 9.16972Z" fill="#F3CD03"/>
</g>
<defs>
<clipPath id="clip0_1579_102">
<rect width="130.068" height="22.0136" fill="white" transform="translate(0.5)"/>
</clipPath>
</defs>
</svg>
