<svg width="131" height="23" viewBox="0 0 131 23" fill="none" xmlns="http://www.w3.org/2000/svg">
<g clip-path="url(#clip0_1579_519)">
<path d="M20.6307 8.41927C20.5731 8.24946 20.467 8.10025 20.3255 7.99006C20.184 7.87987 20.0134 7.81353 19.8346 7.79922L14.6054 7.38371L12.3426 2.3747C12.2706 2.21337 12.1533 2.07634 12.0051 1.98016C11.8569 1.88397 11.684 1.83274 11.5073 1.83264C11.3306 1.83254 11.1577 1.88359 11.0094 1.97961C10.861 2.07563 10.7437 2.21253 10.6714 2.37378L8.4086 7.38371L3.17945 7.79922C3.00376 7.81314 2.8358 7.87738 2.69566 7.98425C2.55552 8.09113 2.44914 8.23612 2.38925 8.40187C2.32935 8.56762 2.31848 8.74712 2.35793 8.91889C2.39737 9.09066 2.48547 9.24743 2.61168 9.37044L6.47599 13.1375L5.10931 19.0555C5.06781 19.2347 5.08112 19.4221 5.14749 19.5936C5.21386 19.7651 5.33024 19.9127 5.48153 20.0172C5.63282 20.1217 5.81202 20.1783 5.9959 20.1797C6.17977 20.1811 6.35982 20.1272 6.51268 20.025L11.507 16.6955L16.5014 20.025C16.6576 20.1288 16.8419 20.1822 17.0294 20.1781C17.2168 20.1739 17.3986 20.1125 17.5501 20.002C17.7017 19.8916 17.8157 19.7373 17.877 19.5601C17.9383 19.3828 17.9438 19.1911 17.8928 19.0106L16.2152 13.1403L20.3758 9.39612C20.6482 9.15031 20.7482 8.7669 20.6307 8.41927V8.41927Z" fill="#F3CD03"/>
<path d="M47.6457 8.41927C47.5881 8.24946 47.4819 8.10025 47.3404 7.99006C47.199 7.87987 47.0283 7.81353 46.8495 7.79922L41.6204 7.38371L39.3576 2.3747C39.2855 2.21337 39.1683 2.07634 39.0201 1.98016C38.8719 1.88397 38.699 1.83274 38.5223 1.83264C38.3456 1.83254 38.1726 1.88359 38.0243 1.97961C37.876 2.07563 37.7586 2.21253 37.6864 2.37378L35.4236 7.38371L30.1944 7.79922C30.0187 7.81314 29.8508 7.87738 29.7106 7.98425C29.5705 8.09113 29.4641 8.23612 29.4042 8.40187C29.3443 8.56762 29.3334 8.74712 29.3729 8.91889C29.4123 9.09066 29.5004 9.24743 29.6266 9.37044L33.4909 13.1375L32.1243 19.0555C32.0828 19.2347 32.0961 19.4221 32.1624 19.5936C32.2288 19.7651 32.3452 19.9127 32.4965 20.0172C32.6478 20.1217 32.827 20.1783 33.0109 20.1797C33.1947 20.1811 33.3748 20.1272 33.5276 20.025L38.522 16.6955L43.5163 20.025C43.6726 20.1288 43.8568 20.1822 44.0443 20.1781C44.2318 20.1739 44.4135 20.1125 44.5651 20.002C44.7166 19.8916 44.8307 19.7373 44.892 19.5601C44.9532 19.3828 44.9587 19.1911 44.9078 19.0106L43.2301 13.1403L47.3907 9.39612C47.6631 9.15031 47.7631 8.7669 47.6457 8.41927V8.41927Z" fill="#F3CD03"/>
<path d="M60.5045 13.1377L59.1378 19.0557C59.0955 19.2349 59.1082 19.4227 59.1743 19.5945C59.2403 19.7664 59.3567 19.9143 59.5082 20.0191C59.6596 20.1238 59.8391 20.1804 60.0233 20.1814C60.2074 20.1825 60.3876 20.1281 60.5403 20.0252L65.5346 16.6956L70.5289 20.0252C70.6852 20.1289 70.8694 20.1823 71.0569 20.1782C71.2444 20.1741 71.4262 20.1127 71.5777 20.0022C71.7292 19.8917 71.8433 19.7375 71.9046 19.5602C71.9659 19.383 71.9714 19.1912 71.9204 19.0107L70.2428 13.1404L74.4033 9.39628C74.5366 9.27629 74.6318 9.11988 74.6771 8.94638C74.7224 8.77289 74.7158 8.58992 74.6582 8.4201C74.6007 8.25029 74.4946 8.10107 74.3531 7.99091C74.2116 7.88075 74.0409 7.81448 73.8622 7.80029L68.633 7.38386L66.3702 2.37485C66.2981 2.21356 66.1808 2.0766 66.0325 1.98049C65.8842 1.88439 65.7113 1.83325 65.5346 1.83325C65.3579 1.83325 65.185 1.88439 65.0367 1.98049C64.8885 2.0766 64.7712 2.21356 64.699 2.37485L62.4362 7.38386L57.207 7.79937C57.0313 7.81329 56.8634 7.87753 56.7232 7.98441C56.5831 8.09128 56.4767 8.23627 56.4168 8.40202C56.3569 8.56777 56.3461 8.74727 56.3855 8.91904C56.425 9.09081 56.5131 9.24758 56.6393 9.37059L60.5045 13.1377ZM63.1214 9.16972C63.2851 9.15682 63.4423 9.10012 63.5766 9.00555C63.7109 8.91098 63.8172 8.78203 63.8845 8.63222L65.5346 4.98071L67.1847 8.63222C67.252 8.78203 67.3584 8.91098 67.4926 9.00555C67.6269 9.10012 67.7841 9.15682 67.9479 9.16972L71.5911 9.45865L68.5908 12.159C68.3303 12.3938 68.2267 12.7552 68.3221 13.0927L69.4714 17.1148L66.0446 14.83C65.8942 14.729 65.7171 14.6751 65.536 14.6751C65.3548 14.6751 65.1778 14.729 65.0274 14.83L61.4465 17.2175L62.4096 13.0478C62.4449 12.8944 62.4402 12.7346 62.3958 12.5836C62.3515 12.4326 62.2691 12.2955 62.1564 12.1856L59.3699 9.46874L63.1214 9.16972Z" fill="#F3CD03"/>
<path d="M87.5182 13.1377L86.1515 19.0557C86.1092 19.2349 86.1219 19.4227 86.1879 19.5945C86.254 19.7664 86.3704 19.9143 86.5218 20.0191C86.6733 20.1238 86.8528 20.1804 87.0369 20.1814C87.2211 20.1825 87.4012 20.1281 87.5539 20.0252L92.5483 16.6956L97.5426 20.0252C97.6989 20.1289 97.8831 20.1823 98.0706 20.1782C98.2581 20.1741 98.4398 20.1127 98.5914 20.0022C98.7429 19.8917 98.857 19.7375 98.9183 19.5602C98.9795 19.383 98.985 19.1912 98.9341 19.0107L97.2564 13.1404L101.417 9.39628C101.55 9.27629 101.645 9.11988 101.691 8.94638C101.736 8.77289 101.729 8.58992 101.672 8.4201C101.614 8.25029 101.508 8.10107 101.367 7.99091C101.225 7.88075 101.055 7.81448 100.876 7.80029L95.6467 7.38386L93.3839 2.37485C93.3117 2.21356 93.1944 2.0766 93.0462 1.98049C92.8979 1.88439 92.725 1.83325 92.5483 1.83325C92.3716 1.83325 92.1987 1.88439 92.0504 1.98049C91.9021 2.0766 91.7848 2.21356 91.7127 2.37485L89.4499 7.38386L84.2207 7.79937C84.045 7.81329 83.8771 7.87753 83.7369 7.98441C83.5968 8.09128 83.4904 8.23627 83.4305 8.40202C83.3706 8.56777 83.3597 8.74727 83.3992 8.91904C83.4386 9.09081 83.5267 9.24758 83.6529 9.37059L87.5182 13.1377ZM90.135 9.16972C90.2988 9.15682 90.456 9.10012 90.5903 9.00555C90.7245 8.91098 90.8309 8.78203 90.8982 8.63222L92.5483 4.98071L94.1984 8.63222C94.2657 8.78203 94.372 8.91098 94.5063 9.00555C94.6406 9.10012 94.7978 9.15682 94.9615 9.16972L98.6048 9.45865L95.6045 12.159C95.344 12.3938 95.2404 12.7552 95.3358 13.0927L96.4851 17.1148L93.0583 14.83C92.9079 14.729 92.7308 14.6751 92.5497 14.6751C92.3685 14.6751 92.1915 14.729 92.041 14.83L88.4602 17.2175L89.4233 13.0478C89.4586 12.8944 89.4538 12.7346 89.4095 12.5836C89.3652 12.4326 89.2827 12.2955 89.1701 12.1856L86.3836 9.46874L90.135 9.16972Z" fill="#F3CD03"/>
<path d="M114.532 13.1377L113.165 19.0557C113.123 19.2349 113.135 19.4227 113.202 19.5945C113.268 19.7664 113.384 19.9143 113.535 20.0191C113.687 20.1238 113.866 20.1804 114.051 20.1814C114.235 20.1825 114.415 20.1281 114.568 20.0252L119.562 16.6956L124.556 20.0252C124.712 20.1289 124.897 20.1823 125.084 20.1782C125.272 20.1741 125.453 20.1127 125.605 20.0022C125.757 19.8917 125.871 19.7375 125.932 19.5602C125.993 19.383 125.999 19.1912 125.948 19.0107L124.27 13.1404L128.431 9.39628C128.564 9.27629 128.659 9.11988 128.704 8.94638C128.75 8.77289 128.743 8.58992 128.686 8.4201C128.628 8.25029 128.522 8.10107 128.38 7.99091C128.239 7.88075 128.068 7.81448 127.889 7.80029L122.66 7.38386L120.397 2.37485C120.325 2.21356 120.208 2.0766 120.06 1.98049C119.912 1.88439 119.739 1.83325 119.562 1.83325C119.385 1.83325 119.212 1.88439 119.064 1.98049C118.916 2.0766 118.798 2.21356 118.726 2.37485L116.463 7.38386L111.234 7.79937C111.059 7.81329 110.891 7.87753 110.751 7.98441C110.61 8.09128 110.504 8.23627 110.444 8.40202C110.384 8.56777 110.373 8.74727 110.413 8.91904C110.452 9.09081 110.54 9.24758 110.667 9.37059L114.532 13.1377V13.1377ZM117.149 9.16972C117.312 9.15682 117.47 9.10012 117.604 9.00555C117.738 8.91098 117.844 8.78203 117.912 8.63222L119.562 4.98071L121.212 8.63222C121.279 8.78203 121.386 8.91098 121.52 9.00555C121.654 9.10012 121.811 9.15682 121.975 9.16972L125.618 9.45865L122.618 12.159C122.358 12.3938 122.254 12.7552 122.349 13.0927L123.499 17.1148L120.072 14.83C119.921 14.729 119.744 14.6751 119.563 14.6751C119.382 14.6751 119.205 14.729 119.055 14.83L115.474 17.2175L116.437 13.0478C116.472 12.8944 116.467 12.7346 116.423 12.5836C116.379 12.4326 116.296 12.2955 116.184 12.1856L113.397 9.46874L117.149 9.16972V9.16972Z" fill="#F3CD03"/>
</g>
<defs>
<clipPath id="clip0_1579_519">
<rect width="130.068" height="22.0136" fill="white" transform="translate(0.5)"/>
</clipPath>
</defs>
</svg>
